<svg width="180" height="180" viewBox="0 0 180 180" fill="none" xmlns="http://www.w3.org/2000/svg">
<rect width="180" height="180" fill="#C6C6C6"/>
<g clip-path="url(#clip0_0_1)">
<rect width="1440" height="1024" transform="translate(-630 -512)" fill="#DFC4FF"/>
<circle cx="90" cy="90" r="90" fill="#389600"/>
<g filter="url(#filter0_d_0_1)">
<path d="M31 72.5H35.6V100.1H49.05V104H31V72.5ZM66.3203 72.05C68.4536 72.05 70.4203 72.4 72.2203 73.1C74.0203 73.7667 75.5703 74.7833 76.8703 76.15C78.2036 77.4833 79.237 79.1667 79.9703 81.2C80.7036 83.2 81.0703 85.55 81.0703 88.25C81.0703 90.8833 80.687 93.2167 79.9203 95.25C79.1536 97.25 78.1036 98.9333 76.7703 100.3C75.437 101.667 73.8536 102.7 72.0203 103.4C70.2203 104.1 68.2536 104.45 66.1203 104.45C63.987 104.45 62.0203 104.117 60.2203 103.45C58.4203 102.75 56.8536 101.733 55.5203 100.4C54.2203 99.0333 53.2036 97.35 52.4703 95.35C51.737 93.3167 51.3703 90.95 51.3703 88.25C51.3703 85.6167 51.7536 83.3 52.5203 81.3C53.287 79.2667 54.337 77.5667 55.6703 76.2C57.0036 74.8333 58.5703 73.8 60.3703 73.1C62.2036 72.4 64.187 72.05 66.3203 72.05ZM56.3703 88.25C56.3703 90.3833 56.6203 92.2333 57.1203 93.8C57.6536 95.3667 58.3703 96.6667 59.2703 97.7C60.1703 98.7333 61.2203 99.5 62.4203 100C63.6536 100.5 64.9536 100.75 66.3203 100.75C67.687 100.75 68.9536 100.5 70.1203 100C71.3203 99.5 72.3536 98.7333 73.2203 97.7C74.1203 96.6667 74.8203 95.3667 75.3203 93.8C75.8203 92.2333 76.0703 90.3833 76.0703 88.25C76.0703 86.05 75.8036 84.1667 75.2703 82.6C74.7703 81.0333 74.0703 79.75 73.1703 78.75C72.2703 77.7167 71.2036 76.9667 69.9703 76.5C68.7703 76 67.487 75.75 66.1203 75.75C64.7536 75.75 63.4703 76 62.2703 76.5C61.0703 77 60.037 77.7667 59.1703 78.8C58.3036 79.8333 57.6203 81.1333 57.1203 82.7C56.6203 84.2667 56.3703 86.1167 56.3703 88.25ZM101.098 72.05C102.931 72.05 104.581 72.1833 106.048 72.45C107.548 72.7167 108.931 73.1833 110.198 73.85L109.098 77.45C107.864 76.8833 106.648 76.4667 105.448 76.2C104.281 75.9333 103.014 75.8 101.648 75.8C100.181 75.8 98.781 76.0167 97.4477 76.45C96.1143 76.8833 94.931 77.6 93.8977 78.6C92.8977 79.5667 92.0977 80.85 91.4977 82.45C90.8977 84.0167 90.5977 85.9667 90.5977 88.3C90.5977 92.3333 91.5143 95.4 93.3477 97.5C95.181 99.6 97.7643 100.65 101.098 100.65C102.364 100.65 103.448 100.583 104.348 100.45C105.281 100.317 106.181 100.083 107.048 99.75V91H101.098V87.4H111.348V102.6C110.014 103.133 108.531 103.583 106.898 103.95C105.264 104.283 103.331 104.45 101.098 104.45C98.931 104.45 96.8977 104.1 94.9977 103.4C93.131 102.7 91.4977 101.667 90.0977 100.3C88.6977 98.9333 87.5977 97.25 86.7977 95.25C85.9977 93.25 85.5977 90.9333 85.5977 88.3C85.5977 85.6667 85.981 83.3333 86.7477 81.3C87.5477 79.2667 88.631 77.5667 89.9977 76.2C91.3643 74.8333 92.9977 73.8 94.8977 73.1C96.7977 72.4 98.8643 72.05 101.098 72.05ZM122.856 72.5V104H118.256V72.5H122.856ZM130.805 72.5H134.805L149.155 92.45C149.688 93.1833 150.205 93.9333 150.705 94.7C151.205 95.4667 151.655 96.2167 152.055 96.95H152.155C152.088 95.7833 152.038 94.6167 152.005 93.45C151.971 92.2833 151.955 91.1167 151.955 89.95V72.5H156.455V104H152.455L138.255 84.3C137.755 83.6 137.238 82.8167 136.705 81.95C136.171 81.05 135.671 80.1667 135.205 79.3H135.105C135.171 80.7 135.221 82.1 135.255 83.5C135.288 84.9 135.305 86.3 135.305 87.7V104H130.805V72.5Z" fill="white"/>
</g>
<g filter="url(#filter1_d_0_1)">
<path d="M-637 445.2H-571.5V345H-440.6V278.2H-375.2V478.6H-309.7V278.2H-178.8V411.8H-47.9V445.2H17.5V345H83V211.4H148.5V378.4H279.4V445.2H344.8V211.4H410.3V178H475.7V211.4H541.2V445.2H606.6V311.6H672.1V278.2H737.5V378.4H803V512H-637V445.2Z" fill="#45176D" fill-opacity="0.49"/>
<path d="M-637 270.111V477.444H-315.444V201H-154.667V339.222H6.11108V201H166.889V235.556H327.667V442.889H488.444V477.444H649.222V270.111H810V512H-637V270.111Z" fill="#450C81"/>
</g>
</g>
<defs>
<filter id="filter0_d_0_1" x="31" y="72.05" width="145.455" height="52.3999" filterUnits="userSpaceOnUse" color-interpolation-filters="sRGB">
<feFlood flood-opacity="0" result="BackgroundImageFix"/>
<feColorMatrix in="SourceAlpha" type="matrix" values="0 0 0 0 0 0 0 0 0 0 0 0 0 0 0 0 0 0 127 0" result="hardAlpha"/>
<feOffset dx="10" dy="10"/>
<feGaussianBlur stdDeviation="5"/>
<feComposite in2="hardAlpha" operator="out"/>
<feColorMatrix type="matrix" values="0 0 0 0 0 0 0 0 0 0 0 0 0 0 0 0 0 0 0.25 0"/>
<feBlend mode="normal" in2="BackgroundImageFix" result="effect1_dropShadow_0_1"/>
<feBlend mode="normal" in="SourceGraphic" in2="effect1_dropShadow_0_1" result="shape"/>
</filter>
<filter id="filter1_d_0_1" x="-637" y="178" width="1465" height="352" filterUnits="userSpaceOnUse" color-interpolation-filters="sRGB">
<feFlood flood-opacity="0" result="BackgroundImageFix"/>
<feColorMatrix in="SourceAlpha" type="matrix" values="0 0 0 0 0 0 0 0 0 0 0 0 0 0 0 0 0 0 127 0" result="hardAlpha"/>
<feOffset dx="10" dy="10"/>
<feGaussianBlur stdDeviation="4"/>
<feComposite in2="hardAlpha" operator="out"/>
<feColorMatrix type="matrix" values="0 0 0 0 0 0 0 0 0 0 0 0 0 0 0 0 0 0 0.25 0"/>
<feBlend mode="normal" in2="BackgroundImageFix" result="effect1_dropShadow_0_1"/>
<feBlend mode="normal" in="SourceGraphic" in2="effect1_dropShadow_0_1" result="shape"/>
</filter>
<clipPath id="clip0_0_1">
<rect width="1440" height="1024" fill="white" transform="translate(-630 -512)"/>
</clipPath>
</defs>
</svg>
